# xmcd CD database file
#
# Track frame offsets:
#	150
#	15190
#	32090
#	56953
#	78890
#	103545
#	125740
#	145302
#	167093
#	183168
#	198515
#	222305
#
# Disc length: 3287 seconds
#
# Revision: 12
# Processed by: cddbd v1.5.2PL0 Copyright (c) Steve Scherf et al.
# Submitted via: CDex 1.70beta2
#
DISCID=a30cd50c
DTITLE=THE GOSPELLERS - FRENZY
DYEAR=2002
DGENRE=J-Pop
TTITLE0=FRENZY
TTITLE1=Get me on
TTITLE2=ポーカーフェイス featuring Rhymester
TTITLE3=残照
TTITLE4=誓い
TTITLE5=告白
TTITLE6=Body Calling
TTITLE7=It should've been me (that loved you)
TTITLE8=ひとり
TTITLE9=真夜中のコーラス
TTITLE10=約束の季節
TTITLE11=DAWN～夜明け～
EXTD=YEAR: 2002
EXTT0=
EXTT1=
EXTT2=
EXTT3=
EXTT4=
EXTT5=
EXTT6=
EXTT7=
EXTT8=
EXTT9=
EXTT10=
EXTT11=
PLAYORDER=
